<svg version="1.2" xmlns="http://www.w3.org/2000/svg" viewBox="0 0 1547 324" width="1547" height="324"><style>.a{fill:#e31f27}</style><path  d="m247.3 74.3h62.7l-37.2 175.1h-62.6zm15.9-73h62.6l-9.6 44.4h-62.7zm149.9 271.1c-18.2 31-38.6 51.4-78.1 51.4-22.1 0-36.9-3.6-48.6-7.4l13.1-44c7.9 2.4 16.5 5.1 28.2 5.1 17.6 0 28.9-11.1 36.2-28.9l-39.7-174.4h63.1l16.2 110.6h0.7l60.9-110.6h65.7zm212.4-48.3l-0.7-0.7v0.7c-13.1 20.2-36.1 28.5-60.2 28.5-38.6 0-60-16.7-60-50.7 0-43 44.1-64.2 98.9-64.2 12.4 0 24.8 1 33.4 1.7 0.6-2.3 0.6-4.7 0.6-7.1 0-12.3-12.7-22.6-33-22.6-22.4 0-37.4 3.5-58.2 13.9l6.3-44c18.2-6.1 37.8-10.1 65.7-10.1 42.6 0 77.8 16.4 77.8 59.5 0 27.5-15.9 66.8-22.8 119.6h-50.6zm-41.3-11.7c26.5 0 42.3-17.9 46.8-41.4-5.2-1-12.7-1-16.5-1-29.6-1-51.3 9.4-51.3 24.9 0 8.1 7.9 17.5 21 17.5zm213.8-138.2l-6.9 36h0.7c9.9-20.6 29.9-40 55.5-40 8.2 0 17.8 1 26.1 4.3l-14.1 53.5c-8-6.1-16.9-7.4-28.6-7.4-26.2 0-41.7 22.2-46.1 48l-17.6 80.6h-61.9l27.8-129.3c3.2-15.1 5.9-29.9 7.6-45.7zm169.6 150.5l-0.7-0.6v0.6c-13.1 20.2-36.2 28.5-60.3 28.5-38.5 0-59.9-16.7-59.9-50.6 0-43.1 44-64.3 98.8-64.3 12.5 0 24.8 1 33.4 1.8 0.8-2.4 0.8-4.8 0.8-7.1 0-12.4-12.8-22.6-33.1-22.6-22.4 0-37.5 3.4-58.2 13.9l6.2-44.1c18.2-6 37.9-10 65.7-10 42.8 0 77.9 16.4 77.9 59.5 0 27.5-15.9 66.8-22.8 119.5h-50.6zm-41.3-11.7c26.5 0 42.4-17.9 46.8-41.3-5.1-1.1-12.7-1.1-16.5-1.1-29.6-1-51.3 9.4-51.3 25 0 8 8 17.4 21 17.4zm148.7-93.1c3.1-15.1 5.9-29.9 7.6-45.7h55l-6.8 31.9 0.7-0.3c15.1-22.2 38.2-35.6 63.4-35.6 21 0 42.3 11.7 47.1 35.6 15.2-22.2 38.2-35.6 64.1-35.6 27.5 0 55.7 13.1 55.7 52 0 11.5-1.3 26.9-4.1 39.4l-18.6 87.7h-62l17.9-85c2.1-9.1 3.5-18.5 3.5-25.5 0-11.5-5.6-18.2-20.1-18.2-25.7 0-32.6 29.3-36.8 48.1l-17.5 80.6h-62l17.9-85c2.1-9.1 3.5-18.5 3.5-25.5 0-11.5-5.5-18.2-20-18.2-25.9 0-32.7 29.3-36.8 48.1l-17.6 80.6h-61.9zm310.3 82.9c15.8 6.7 33 10.1 50.2 10.1 10 0 34.7-1 34.7-15.4 0-24.9-74-12.1-74-69.9 0-41.1 49-57.5 90.6-57.5 15.5 0 37.2 3.3 59.6 10.4l-13.1 39.7c-15.9-6.4-31-9.9-49.6-9.9-13.8 0-28.9 3.1-28.9 15.2 0 19.6 77.5 18.2 77.5 62.2 0 43.3-37.6 64.9-84 65.5-27.2 0.4-56.2-3.6-75.4-9zm-1186.9-135.1c-12.4-5.7-29.2-10.8-53-10.8-25.5 0-46.1 3.7-46.1 22.6 0 16.5 22.9 21.6 46 31.5 23.6 9.9 47.3 24.6 47.3 60.5 0 64.9-61.6 81.6-117.4 81.6-24.8 0-53.4-5.6-74.3-12l15.1-47.7c12.7 8 38.2 13.4 59.2 13.4 19.9 0 51.3-3.7 51.3-27.9 0-37.6-93.3-23.5-93.3-89.7 0-28.3 11.9-47.3 29.9-59.6 20.6-13.9 49.1-19 77.2-19 29.6 0 57.5 3.1 73.6 10.4z"/><path class="a" d="m1368.3 0.2l-8.4 38.6h31 0.6c0.9 0 7.5 0.1 9.6 6.4 0 0 1.5 3.5-0.6 10.5-1.1 3.7-3.3 6.4-4.5 8.2-1.4 2.2-1.4 1.9-14.8 19.8h11.9l66.1-83.5z"/></svg>