<svg version="1.2" xmlns="http://www.w3.org/2000/svg" viewBox="0 0 1596 1601" width="1596" height="1601">
	<title>Screenshot 2022-11-11 at 07-svg</title>
	<style>
		.s0 { fill: #371e58 } 
	</style>
	<g id="#202020ff">
		<path id="Layer" fill-rule="evenodd" class="s0" d="m616.7 70.4c47.3-43.4 110.7-68.7 174.9-69.8 57.3-1.5 114.9 16 161.6 49.3 63.1 44.4 106.7 117.2 112.1 194.6 60.1-1.1 119.9 25.5 159.5 70.7 66.3 74.3 84.3 187.1 46.9 279-18.1 46-49.5 86.4-89 115.9-33.1 24.7-71.8 41.7-112.5 49.1-8.2 50.5-31.5 98.3-66 136.2-38 42.2-89.3 72.5-144.7 85.2-59.7 14.3-124.1 7-179.2-19.8-45.2-21.8-84.1-56.7-110.8-99.2-22.5-35.5-36.3-76.5-39.9-118.5-60.5 2-120.4-25.7-159.9-71.1-38.4-43.3-60.4-100-64.5-157.5-0.6-21.4-1-43 2.8-64.2 10.1-65.2 45.9-125.6 97.5-166.7 36.2-29 80-48.6 125.9-55.7 9.5-60.2 40-116.8 85.3-157.5zm95.8-31.2c-28.6 11.4-55.8 27.4-77.4 49.5-15.3 15.3-27.7 33.5-35.7 53.7-12.4 29.7-14.5 63-10.2 94.7 4 29.3 16.7 57.4 36.2 79.8 19.8 23 45.7 39.9 72.3 54.1 30.8 15.9 63.1 28.7 95.4 41 59.1 22.8 119.5 44.7 171.5 81.7 26.1 18.8 49.7 41.7 67.2 68.9 16.4 25.1 27.7 53.4 33.8 82.7 7 30.2 8 61.3 7.2 92.2 55.5-11.8 105.8-45.6 137.7-92.6 26.9-38.9 42.6-85.3 46.4-132.3 2.8-57-4.9-116.5-34.4-166.4-15.7-26.2-37.7-48.8-64.3-64-27.7-16.2-59.8-24.9-91.8-25 1.3 37.2-8.8 75.8-33.3 104.5-14.2 18.2-35.3 32-58.8 33.1-12.2 0.1-25.2-4.4-32.7-14.4-7.1-9-10.1-20.9-9.3-32.3 2.3-24.5 16-46.6 33.2-63.6 23.3-22.7 54.9-36 87.1-39-1.2-32.5-12.3-64-27.5-92.4-23.3-43.3-58.4-80.8-102.5-103-36.8-19.1-78.5-27.7-119.8-28.3-31-0.7-61.5 6.7-90.3 17.4zm-153.8 205.8c-4.5 49.1 13.8 99.8 49.2 134.2 15.2 15.7 32.9 28.6 51.6 39.7 53.4 31.7 113 50.3 170.2 73.5 53.2 21.5 106.9 46.4 147.7 87.8 25.1 25.6 43.7 57.6 53.7 92 6.7 23.4 10.1 47.6 12 71.8 0.6-4.4 0.7-8.8 0.7-13.2-0.8-26.4-4.5-52.8-12.2-78.2-10-31.5-27.4-60.5-50.2-84.3-36.1-37.6-82.8-62.6-130.2-82.9-64.8-28.4-133.9-47.7-195.3-83.8-21.4-13-41.7-28.5-57.7-48-19.4-23.1-31.6-51.8-36.5-81.5-1.5-9-1.7-18.1-3-27.1zm-80.5 20.4c-34.1 15-64.1 38.9-86.6 68.6-25.9 33.6-42.3 74-49.9 115.6-5.9 32.3-4.6 65.4-0.5 97.9 5.5 37.8 17.4 75.4 39.8 106.8 32.9 47.6 90.3 77.3 148.2 76.1-1.5-35.5 7.9-72.2 30.2-100.4 12.7-17.1 30.7-31.5 52.1-35.5 14.2-2.7 30.8-0.2 40.7 11.3 10.2 10.8 12 26.7 9.9 40.7-3.6 21.7-16.2 40.9-31.5 56.3-23.4 23.5-55.7 36.8-88.5 40 3 39.9 17.9 78.1 39.6 111.5 10.1 15.6 21.7 30.3 35.1 43.2 45.6 45.8 110.8 68.7 174.8 68.4 19.5 0.8 38.9-2.1 57.8-7 49.2-13.4 96.5-40.2 126.5-82.3 19.2-26.5 30.2-58.7 31.7-91.3 1.2-9.6 0.9-19.3-0.1-28.9-1.5-40.1-13.5-80.3-37.3-113-26.7-36.7-66.1-61.8-106.8-80.5-69.3-32.4-144.7-50.6-211.8-87.8-21.7-12.3-42.3-26.7-60.1-44.2-22.2-22-39.4-49-49.1-78.7-11.8-33.1-14.1-68.6-13.1-103.3-17.4 4-34.9 8.8-51.1 16.5zm523.5 10.4c-18 12.2-32.6 30.8-36.2 52.7-0.8 8.8-1.1 18.2 3.4 26.2 5.1 10.4 18.2 17.4 29.5 13.3 13.5-3.8 23.9-13.8 32.6-24.4 10.5-13.9 15.8-31 19.1-47.9 2.2-12.4 3.8-25 3.5-37.6-18.4 1.3-36.3 8-51.9 17.7zm-432.2 362.7c-10.2 10.4-16.2 24-20.4 37.8-5.2 17.5-7.5 35.8-7.1 54 19.4-2.2 38.4-8.7 54.5-20 14.9-10.7 26.8-26 31.9-43.8 3.6-11.5 3.5-24.9-3.3-35.3-4.7-8.2-14.5-13.1-23.9-11.8-12.7 1.6-23.2 10.1-31.7 19.1z"/>
		<path id="Layer" fill-rule="evenodd" class="s0" d="m351.8 1115c9-5.1 21.4 0.7 24 10.4 0.6 4.9 1.2 10.5-1.9 14.7-5.9 9.1-21.3 9.8-27.8 1-6.8-8-3.6-21.6 5.7-26.1zm92.5-1.1c8.7-3 18.8 2.8 21.5 11.4 3.3 8.1-1.9 18-9.9 21-7 2-15.6 1.2-20-5.2-7.6-8.9-2.6-24 8.4-27.2zm781.4 78.2c2.7-5.2 3.9-11.7 9.4-14.7 42.8 96.4 85.2 193.1 130.2 288.6 8.5 19.8 18 39.2 27.4 58.5-11.2 0.1-22.5-0.1-33.7 0.1-7.9-28.8-21.2-55.6-33.2-82.9-12.6-26.7-24.9-53.7-37.6-80.4-20.8-0.2-41.6 0-62.4-1.1-22 1.1-44.1 0.9-66.1 1.3-12.7 26.7-24.5 53.9-36.8 80.7-12.1 27.4-24.4 54.6-35.5 82.4-6.2-0.1-12.5 0-18.7-0.1 13.6-25.6 25.4-52 37.8-78.1 39.7-84.8 79.5-169.5 119.2-254.3zm-1 23.6c-20.6 45.2-41.6 90.3-60.8 136.2 40.1 0.6 80.2 0.3 120.3 0.1-5.6-13.9-12.1-27.4-17.8-41.3-14.1-31.6-27.1-63.6-41.7-95zm-1196.2 0.3c15.9-21.9 42.7-33.5 69.2-34.9 25-1.4 51.7 2.2 72.5 17.2-4.8 5.4-9.6 10.7-14.6 15.9-7.7-8.9-17-17-28.3-21.1-10.6-3.7-22.3-5.7-33.5-3.6-18.2 2-36.4 9.9-48.1 24.6-9.4 12.6-12.9 29.3-9.8 44.7 2.1 21.1 15.5 39.3 33 50.6 26.3 16.7 56.7 26 82.2 44.3 16.7 11.1 31 26.7 37.8 45.8 6.7 19.8 6.4 41.5 1.5 61.7-6.2 24.8-23.5 46.4-46.2 58-24.9 13.6-54.6 16.4-82.4 12.4-22.7-3.6-44.8-13.3-61.8-28.9 5.7-5.4 11.5-10.7 17.6-15.6 8.2 20.8 30.5 31.4 51.3 35.3 16.9 2.5 34.7 2.2 51.1-3.3 17.8-5.7 33.4-18.1 42.6-34.3 11.8-22.1 14.3-50.3 2.6-73-9.8-19.8-27.9-34-46.6-44.9-22.1-13.7-47.7-21.1-68.5-37-16.5-11.7-30.2-28.7-34.4-48.8-4.7-22.2-0.8-46.7 12.8-65.1zm350.6-33.4c51.4-6.9 105.9 6.1 147 38.1 26.2 20.1 45.8 48.4 55.9 79.8 12.8 41 11 86.7-6.6 126-19.1 44-56.4 80.1-101.6 96.5-20.2 7.9-42 10.9-63.6 10.2-42.1-0.5-84.5-14.2-117.5-40.6-21.6-17-38.5-39.7-49.2-64.9-23-55.6-17.2-123.1 18.1-172.3 26.9-39.1 70.6-66.2 117.5-72.8zm11 7.7c-17.4 2-34.7 6.4-50.2 14.7-30.7 15.4-54 43.7-66 75.6-12 29.6-14 62.1-11.3 93.6 2.8 27.6 10.9 54.7 24.8 78.7 14.2 24.7 35.3 45.5 61.1 57.9 36 17.2 78.8 18.1 116.5 5.8 26.4-9.2 49.7-27.1 65.2-50.5 23.9-35.8 31.1-80.5 27.8-122.9-2.7-27.2-9.7-54.3-23.2-78.2-14.2-26.3-36.4-48.7-63.5-61.5-24.9-12.6-53.7-15.5-81.2-13.2zm1049.3 15.3c21.9-20.8 53.8-27.4 83-24.1 17.7 1.1 35.3 6.5 49.8 16.8-4.9 5.3-10 10.5-14.7 16-9.1-10.6-20.5-19.8-34.4-23.1-14.7-4.4-30.4-2.3-44.8 2.1-12.2 3.9-23.3 11.4-31.2 21.5-9.2 12.6-12.2 29.2-9.3 44.5 2.1 16 9.8 31.3 22.2 41.8 20.4 17.8 46.9 25.8 70.1 38.8 23.3 12.2 46.5 28.3 58 52.9 8.6 18.9 9 40.6 5.7 60.9-4.4 27.3-22.1 51.9-46.5 64.9-23.4 13.2-51.1 16.4-77.5 14-24.9-2.9-49.3-13-68-29.9 5.8-5.3 11.5-10.6 17.6-15.5 4.3 10 11.7 18.5 21.2 24 15.8 9.6 34.5 13.5 52.8 12.5 26.3 0.2 53.3-11.8 68.1-34.1 12.6-19.7 16.9-45.2 9.7-67.6-7.7-24.3-28.1-41.9-49.5-54.4-22.1-13.9-47.8-21.2-68.8-37-14.8-10.3-27.3-24.7-33.3-41.9-9.2-28.4-2.5-62.4 19.8-83.1zm-571.6-17c7.1 1.9 14.4 1.5 21.5 1.7 58.8 0 117.5 0 176.3 0 11.3-0.3 22.8 0.5 33.9-1.8 1.2 6.1 2.6 12.2 4 18.2-28.3-6.1-57.2-7.4-86-7.6-6.7-0.1-14-2-20.4 0-2.5 8-0.9 17-1.6 25.3-1.7 16.5-1 33.1-1.3 49.7-0.3 65.2 0.1 130.4 0.4 195.6 1.6 17.9 1 36 3 54-10.3 0.2-20.6 0-30.9 0.1 0.3-7.4 0.5-14.8 1.5-22.1 1-20.3 0.2-40.7 1.7-60.9 0.3-69 0.3-137.9 0-206.9-1.1-11.5-0.9-23.2-1.1-34.8-35.5 0.1-72.1-2.3-106.1 9.6 1.6-6.7 3-13.5 5.1-20.1zm-53.3 1.4c7.6 0.1 15.2-0.1 22.7 0.1-43.5 41.3-85.8 83.9-127.5 127-3.8 4.2-8.2 8.1-10.6 13.3 0.9 4.5 4.6 7.7 7.3 11.3 53.1 60.8 104.6 123 158.9 182.8-12.4 0.1-24.7 0-37 0-20-28.3-42.8-54.5-65.4-80.8-29.8-34.1-57.6-70.1-88.2-103.5 29.8-30.1 59.4-60.6 88.3-91.6 17.6-19.1 36-37.7 51.5-58.6zm-174.6 0c10.3 0 20.7 0 31 0-2.2 14.1-2.1 28.3-2.2 42.4-1.6 17.1-0.9 34.2-1.2 51.3-0.1 58.2-0.2 116.4-0.5 174.7-0.1 22.1 0.9 44.2 3.8 66.2-10.9-0.1-21.8-0.1-32.8 0 2.9-19.3 2.4-38.8 2.6-58.2 1.3-12.8 0.6-25.7 0.9-38.5 0-28.8 0.5-57.7 0.5-86.5-0.3-24.6 2.6-49.2 0.2-73.7-0.7-25.9 1.1-51.9-2.3-77.7zm855.9 376.8c5.8-1.3 12.6-0.8 17 3.6 9.2 7.3 7.7 24.3-3.4 28.9-7 2.7-16.4 2.2-21.3-4.1-7.5-8.9-3.7-24.7 7.7-28.4z"/>
	</g>
</svg>